<?xml version="1.0" encoding="UTF-8"?>
<svg xmlns="http://www.w3.org/2000/svg" xmlns:xlink="http://www.w3.org/1999/xlink" width="854" height="480" viewBox="0 0 854 480">
<defs>
<g>
<g id="glyph-0-0">
<path d="M 1.671875 -3.5 L 0.96875 0 L 0.605469 0 L 1.238281 -3.179688 L 0.414062 -3.179688 L 0.480469 -3.5 Z "/>
</g>
<g id="glyph-0-1">
<path d="M 1.433594 0.03125 C 1.078125 0.03125 0.800781 -0.0820312 0.597656 -0.304688 C 0.394531 -0.527344 0.296875 -0.839844 0.296875 -1.234375 C 0.296875 -1.636719 0.367188 -2.011719 0.511719 -2.363281 C 0.652344 -2.714844 0.859375 -2.996094 1.125 -3.210938 C 1.390625 -3.421875 1.699219 -3.53125 2.046875 -3.53125 C 2.402344 -3.53125 2.679688 -3.417969 2.882812 -3.195312 C 3.085938 -2.972656 3.183594 -2.660156 3.183594 -2.265625 C 3.183594 -1.863281 3.113281 -1.488281 2.96875 -1.136719 C 2.828125 -0.785156 2.621094 -0.503906 2.355469 -0.289062 C 2.089844 -0.078125 1.78125 0.03125 1.433594 0.03125 M 1.464844 -0.300781 C 1.738281 -0.300781 1.976562 -0.398438 2.183594 -0.59375 C 2.390625 -0.789062 2.550781 -1.035156 2.65625 -1.339844 C 2.765625 -1.644531 2.820312 -1.949219 2.820312 -2.261719 C 2.820312 -2.5625 2.75 -2.796875 2.609375 -2.957031 C 2.464844 -3.121094 2.269531 -3.199219 2.015625 -3.199219 C 1.742188 -3.199219 1.5 -3.101562 1.296875 -2.90625 C 1.089844 -2.710938 0.929688 -2.464844 0.824219 -2.160156 C 0.714844 -1.855469 0.660156 -1.550781 0.660156 -1.238281 C 0.660156 -0.9375 0.730469 -0.703125 0.871094 -0.542969 C 1.015625 -0.378906 1.210938 -0.300781 1.464844 -0.300781 Z "/>
</g>
<g id="glyph-0-2">
</g>
<g id="glyph-0-3">
<path d="M 3.195312 -2.628906 L 2.734375 -0.320312 C 2.644531 0.140625 2.476562 0.472656 2.226562 0.683594 C 1.980469 0.890625 1.636719 0.996094 1.203125 0.996094 C 0.957031 0.996094 0.734375 0.960938 0.539062 0.890625 C 0.339844 0.824219 0.171875 0.726562 0.0351562 0.601562 L 0.246094 0.328125 C 0.351562 0.441406 0.492188 0.527344 0.664062 0.585938 C 0.835938 0.648438 1.023438 0.679688 1.230469 0.679688 C 1.558594 0.679688 1.816406 0.601562 2 0.449219 C 2.183594 0.296875 2.308594 0.0585938 2.371094 -0.261719 L 2.429688 -0.550781 C 2.304688 -0.40625 2.152344 -0.296875 1.972656 -0.21875 C 1.792969 -0.140625 1.597656 -0.101562 1.378906 -0.101562 C 1.03125 -0.101562 0.75 -0.195312 0.539062 -0.386719 C 0.324219 -0.574219 0.21875 -0.832031 0.21875 -1.160156 C 0.21875 -1.441406 0.285156 -1.691406 0.414062 -1.921875 C 0.539062 -2.148438 0.71875 -2.324219 0.949219 -2.453125 C 1.175781 -2.585938 1.433594 -2.648438 1.71875 -2.648438 C 1.96875 -2.648438 2.183594 -2.597656 2.363281 -2.496094 C 2.546875 -2.394531 2.671875 -2.246094 2.746094 -2.050781 L 2.855469 -2.628906 L 3.195312 -2.628906 M 1.449219 -0.414062 C 1.667969 -0.414062 1.863281 -0.464844 2.039062 -0.566406 C 2.210938 -0.664062 2.347656 -0.804688 2.449219 -0.980469 C 2.546875 -1.15625 2.59375 -1.355469 2.59375 -1.574219 C 2.59375 -1.816406 2.519531 -2.003906 2.363281 -2.136719 C 2.210938 -2.273438 2 -2.339844 1.726562 -2.339844 C 1.503906 -2.339844 1.308594 -2.289062 1.136719 -2.191406 C 0.960938 -2.089844 0.824219 -1.953125 0.726562 -1.773438 C 0.628906 -1.597656 0.578125 -1.398438 0.578125 -1.179688 C 0.578125 -0.941406 0.65625 -0.753906 0.808594 -0.617188 C 0.964844 -0.484375 1.175781 -0.414062 1.449219 -0.414062 Z "/>
</g>
<g id="glyph-0-4">
<path d="M 0.566406 -1.214844 C 0.5625 -1.191406 0.558594 -1.15625 0.558594 -1.109375 C 0.558594 -0.84375 0.636719 -0.640625 0.789062 -0.5 C 0.9375 -0.359375 1.164062 -0.289062 1.464844 -0.289062 C 1.636719 -0.289062 1.800781 -0.320312 1.953125 -0.378906 C 2.105469 -0.4375 2.226562 -0.515625 2.324219 -0.621094 L 2.484375 -0.363281 C 2.363281 -0.242188 2.207031 -0.144531 2.023438 -0.078125 C 1.835938 -0.0078125 1.640625 0.0234375 1.433594 0.0234375 C 1.054688 0.0234375 0.753906 -0.0742188 0.539062 -0.273438 C 0.320312 -0.476562 0.210938 -0.75 0.210938 -1.09375 C 0.210938 -1.386719 0.273438 -1.652344 0.398438 -1.890625 C 0.523438 -2.125 0.695312 -2.3125 0.917969 -2.449219 C 1.140625 -2.582031 1.386719 -2.648438 1.664062 -2.648438 C 2.015625 -2.648438 2.292969 -2.550781 2.5 -2.351562 C 2.707031 -2.152344 2.808594 -1.882812 2.808594 -1.535156 C 2.808594 -1.4375 2.796875 -1.332031 2.773438 -1.214844 L 0.566406 -1.214844 M 1.65625 -2.351562 C 1.390625 -2.351562 1.167969 -2.273438 0.980469 -2.113281 C 0.792969 -1.957031 0.667969 -1.746094 0.601562 -1.480469 L 2.476562 -1.480469 C 2.476562 -1.503906 2.480469 -1.535156 2.480469 -1.574219 C 2.480469 -1.820312 2.40625 -2.011719 2.253906 -2.148438 C 2.105469 -2.28125 1.90625 -2.351562 1.65625 -2.351562 Z "/>
</g>
<g id="glyph-0-5">
<path d="M 2.039062 -2.648438 C 2.335938 -2.648438 2.566406 -2.574219 2.734375 -2.421875 C 2.898438 -2.269531 2.980469 -2.0625 2.980469 -1.796875 C 2.980469 -1.703125 2.96875 -1.601562 2.949219 -1.496094 L 2.648438 0 L 2.296875 0 L 2.59375 -1.5 C 2.613281 -1.59375 2.621094 -1.671875 2.621094 -1.738281 C 2.621094 -1.929688 2.5625 -2.074219 2.449219 -2.175781 C 2.332031 -2.277344 2.164062 -2.328125 1.941406 -2.328125 C 1.65625 -2.328125 1.421875 -2.253906 1.238281 -2.097656 C 1.058594 -1.941406 0.933594 -1.714844 0.871094 -1.410156 L 0.589844 0 L 0.234375 0 L 0.753906 -2.628906 L 1.09375 -2.628906 L 1.011719 -2.210938 C 1.261719 -2.503906 1.601562 -2.648438 2.039062 -2.648438 Z "/>
</g>
<g id="glyph-0-6">
<path d="M 1.003906 -2.148438 C 1.121094 -2.320312 1.269531 -2.445312 1.445312 -2.527344 C 1.621094 -2.609375 1.835938 -2.648438 2.085938 -2.648438 L 2.019531 -2.304688 L 1.921875 -2.308594 C 1.636719 -2.308594 1.402344 -2.226562 1.222656 -2.066406 C 1.039062 -1.902344 0.917969 -1.660156 0.855469 -1.335938 L 0.589844 0 L 0.234375 0 L 0.753906 -2.628906 L 1.09375 -2.628906 Z "/>
</g>
<g id="glyph-0-7">
<path d="M 3.160156 -2.628906 L 2.636719 0 L 2.296875 0 L 2.378906 -0.414062 C 2.253906 -0.273438 2.101562 -0.167969 1.929688 -0.0898438 C 1.757812 -0.0117188 1.566406 0.0234375 1.355469 0.0234375 C 1.132812 0.0234375 0.933594 -0.0195312 0.761719 -0.109375 C 0.585938 -0.199219 0.453125 -0.328125 0.355469 -0.496094 C 0.257812 -0.664062 0.210938 -0.863281 0.210938 -1.089844 C 0.210938 -1.386719 0.273438 -1.652344 0.402344 -1.890625 C 0.53125 -2.125 0.707031 -2.3125 0.933594 -2.449219 C 1.160156 -2.582031 1.414062 -2.648438 1.695312 -2.648438 C 1.945312 -2.648438 2.15625 -2.601562 2.324219 -2.503906 C 2.496094 -2.402344 2.617188 -2.261719 2.695312 -2.078125 L 2.804688 -2.628906 L 3.160156 -2.628906 M 1.429688 -0.289062 C 1.648438 -0.289062 1.839844 -0.34375 2.015625 -0.449219 C 2.1875 -0.550781 2.324219 -0.699219 2.421875 -0.886719 C 2.519531 -1.074219 2.570312 -1.285156 2.570312 -1.519531 C 2.570312 -1.777344 2.496094 -1.976562 2.34375 -2.121094 C 2.191406 -2.265625 1.976562 -2.339844 1.703125 -2.339844 C 1.488281 -2.339844 1.292969 -2.285156 1.121094 -2.179688 C 0.945312 -2.074219 0.8125 -1.925781 0.710938 -1.738281 C 0.613281 -1.550781 0.566406 -1.339844 0.566406 -1.105469 C 0.566406 -0.847656 0.640625 -0.648438 0.792969 -0.503906 C 0.945312 -0.363281 1.15625 -0.289062 1.429688 -0.289062 Z "/>
</g>
<g id="glyph-0-8">
<path d="M 0.804688 -0.796875 C 0.792969 -0.714844 0.785156 -0.660156 0.785156 -0.628906 C 0.785156 -0.398438 0.910156 -0.28125 1.164062 -0.28125 C 1.316406 -0.28125 1.449219 -0.324219 1.570312 -0.414062 L 1.65625 -0.144531 C 1.503906 -0.03125 1.308594 0.0234375 1.070312 0.0234375 C 0.875 0.0234375 0.71875 -0.0273438 0.601562 -0.136719 C 0.488281 -0.242188 0.429688 -0.386719 0.429688 -0.574219 C 0.429688 -0.648438 0.4375 -0.714844 0.449219 -0.78125 L 0.753906 -2.328125 L 0.289062 -2.328125 L 0.34375 -2.628906 L 0.816406 -2.628906 L 0.929688 -3.203125 L 1.285156 -3.203125 L 1.171875 -2.628906 L 1.96875 -2.628906 L 1.910156 -2.328125 L 1.109375 -2.328125 Z "/>
</g>
<g id="glyph-0-9">
<path d="M 0.753906 -2.628906 L 1.109375 -2.628906 L 0.589844 0 L 0.234375 0 L 0.753906 -2.628906 M 1.085938 -3.203125 C 1.015625 -3.203125 0.957031 -3.226562 0.914062 -3.273438 C 0.867188 -3.320312 0.84375 -3.375 0.84375 -3.441406 C 0.84375 -3.515625 0.871094 -3.582031 0.921875 -3.632812 C 0.972656 -3.683594 1.039062 -3.710938 1.121094 -3.710938 C 1.191406 -3.710938 1.25 -3.6875 1.296875 -3.640625 C 1.339844 -3.597656 1.363281 -3.546875 1.363281 -3.484375 C 1.363281 -3.40625 1.339844 -3.339844 1.285156 -3.285156 C 1.230469 -3.230469 1.164062 -3.203125 1.085938 -3.203125 Z "/>
</g>
<g id="glyph-0-10">
<path d="M 1.40625 0.0234375 C 1.164062 0.0234375 0.953125 -0.0195312 0.773438 -0.113281 C 0.59375 -0.203125 0.457031 -0.335938 0.359375 -0.503906 C 0.257812 -0.671875 0.210938 -0.867188 0.210938 -1.089844 C 0.210938 -1.386719 0.273438 -1.652344 0.40625 -1.890625 C 0.535156 -2.125 0.714844 -2.3125 0.949219 -2.449219 C 1.179688 -2.582031 1.441406 -2.648438 1.730469 -2.648438 C 2.097656 -2.648438 2.386719 -2.550781 2.601562 -2.351562 C 2.816406 -2.148438 2.925781 -1.878906 2.925781 -1.539062 C 2.925781 -1.242188 2.859375 -0.976562 2.730469 -0.738281 C 2.601562 -0.5 2.417969 -0.3125 2.1875 -0.175781 C 1.957031 -0.0429688 1.695312 0.0234375 1.40625 0.0234375 M 1.429688 -0.289062 C 1.648438 -0.289062 1.839844 -0.34375 2.015625 -0.449219 C 2.1875 -0.550781 2.324219 -0.699219 2.421875 -0.886719 C 2.519531 -1.074219 2.570312 -1.285156 2.570312 -1.519531 C 2.570312 -1.777344 2.496094 -1.976562 2.34375 -2.121094 C 2.191406 -2.265625 1.976562 -2.339844 1.703125 -2.339844 C 1.488281 -2.339844 1.292969 -2.285156 1.121094 -2.179688 C 0.945312 -2.074219 0.8125 -1.925781 0.710938 -1.738281 C 0.613281 -1.550781 0.566406 -1.339844 0.566406 -1.105469 C 0.566406 -0.847656 0.640625 -0.648438 0.792969 -0.503906 C 0.945312 -0.363281 1.15625 -0.289062 1.429688 -0.289062 Z "/>
</g>
<g id="glyph-0-11">
<path d="M 1 0.0234375 C 0.789062 0.0234375 0.589844 -0.00390625 0.398438 -0.0664062 C 0.207031 -0.125 0.0585938 -0.203125 -0.046875 -0.296875 L 0.125 -0.574219 C 0.226562 -0.488281 0.355469 -0.417969 0.519531 -0.363281 C 0.683594 -0.3125 0.855469 -0.285156 1.035156 -0.285156 C 1.285156 -0.285156 1.476562 -0.324219 1.613281 -0.40625 C 1.746094 -0.488281 1.816406 -0.605469 1.816406 -0.753906 C 1.816406 -0.839844 1.789062 -0.90625 1.734375 -0.953125 C 1.675781 -1.003906 1.609375 -1.042969 1.53125 -1.070312 C 1.449219 -1.097656 1.332031 -1.125 1.179688 -1.160156 C 0.996094 -1.199219 0.847656 -1.238281 0.734375 -1.28125 C 0.621094 -1.320312 0.523438 -1.382812 0.445312 -1.46875 C 0.363281 -1.558594 0.324219 -1.675781 0.324219 -1.828125 C 0.324219 -2.078125 0.429688 -2.277344 0.636719 -2.425781 C 0.839844 -2.574219 1.117188 -2.648438 1.464844 -2.648438 C 1.636719 -2.648438 1.800781 -2.628906 1.960938 -2.582031 C 2.125 -2.539062 2.253906 -2.476562 2.355469 -2.40625 L 2.203125 -2.121094 C 2.105469 -2.191406 1.988281 -2.25 1.851562 -2.289062 C 1.71875 -2.324219 1.578125 -2.34375 1.433594 -2.34375 C 1.195312 -2.34375 1.007812 -2.300781 0.875 -2.214844 C 0.742188 -2.128906 0.675781 -2.011719 0.675781 -1.863281 C 0.675781 -1.777344 0.703125 -1.707031 0.761719 -1.65625 C 0.816406 -1.601562 0.886719 -1.5625 0.972656 -1.535156 C 1.058594 -1.507812 1.171875 -1.480469 1.320312 -1.449219 C 1.5 -1.410156 1.644531 -1.371094 1.757812 -1.332031 C 1.871094 -1.292969 1.964844 -1.230469 2.046875 -1.144531 C 2.125 -1.058594 2.164062 -0.941406 2.164062 -0.796875 C 2.164062 -0.539062 2.058594 -0.335938 1.847656 -0.191406 C 1.636719 -0.046875 1.351562 0.0234375 1 0.0234375 Z "/>
</g>
</g>
</defs>
<g fill="rgb(41.960784%, 44.705882%, 50.196078%)" fill-opacity="1">
<use xlink:href="#glyph-0-0" x="30" y="24.839844"/>
<use xlink:href="#glyph-0-1" x="32" y="24.839844"/>
<use xlink:href="#glyph-0-1" x="35" y="24.839844"/>
<use xlink:href="#glyph-0-2" x="38" y="24.839844"/>
<use xlink:href="#glyph-0-3" x="39" y="24.839844"/>
<use xlink:href="#glyph-0-4" x="42" y="24.839844"/>
<use xlink:href="#glyph-0-5" x="45" y="24.839844"/>
<use xlink:href="#glyph-0-4" x="48" y="24.839844"/>
<use xlink:href="#glyph-0-6" x="51" y="24.839844"/>
<use xlink:href="#glyph-0-7" x="53" y="24.839844"/>
<use xlink:href="#glyph-0-8" x="56" y="24.839844"/>
<use xlink:href="#glyph-0-9" x="58" y="24.839844"/>
<use xlink:href="#glyph-0-10" x="59" y="24.839844"/>
<use xlink:href="#glyph-0-5" x="62" y="24.839844"/>
<use xlink:href="#glyph-0-11" x="65" y="24.839844"/>
</g>
</svg>
