<?xml version="1.0" encoding="UTF-8"?>
<svg xmlns="http://www.w3.org/2000/svg" xmlns:xlink="http://www.w3.org/1999/xlink" width="854" height="480" viewBox="0 0 854 480">
<defs>
<g>
<g id="glyph-0-0">
<path d="M 1.25 -3.179688 L 0.0195312 -3.179688 L 0.0195312 -3.5 L 2.851562 -3.5 L 2.851562 -3.179688 L 1.621094 -3.179688 L 1.621094 0 L 1.25 0 Z "/>
</g>
<g id="glyph-0-1">
<path d="M 0.835938 -2.113281 C 0.917969 -2.292969 1.042969 -2.425781 1.207031 -2.515625 C 1.371094 -2.605469 1.578125 -2.648438 1.820312 -2.648438 L 1.820312 -2.304688 L 1.734375 -2.308594 C 1.457031 -2.308594 1.242188 -2.226562 1.085938 -2.054688 C 0.929688 -1.886719 0.851562 -1.648438 0.851562 -1.339844 L 0.851562 0 L 0.496094 0 L 0.496094 -2.628906 L 0.835938 -2.628906 Z "/>
</g>
<g id="glyph-0-2">
<path d="M 1.414062 -2.648438 C 1.757812 -2.648438 2.023438 -2.5625 2.203125 -2.390625 C 2.386719 -2.222656 2.480469 -1.964844 2.480469 -1.628906 L 2.480469 0 L 2.140625 0 L 2.140625 -0.410156 C 2.058594 -0.273438 1.941406 -0.167969 1.789062 -0.0898438 C 1.632812 -0.0117188 1.449219 0.0234375 1.234375 0.0234375 C 0.941406 0.0234375 0.707031 -0.046875 0.535156 -0.183594 C 0.363281 -0.324219 0.273438 -0.511719 0.273438 -0.738281 C 0.273438 -0.964844 0.355469 -1.144531 0.515625 -1.28125 C 0.679688 -1.417969 0.9375 -1.484375 1.289062 -1.484375 L 2.125 -1.484375 L 2.125 -1.644531 C 2.125 -1.871094 2.0625 -2.042969 1.933594 -2.164062 C 1.808594 -2.28125 1.625 -2.339844 1.378906 -2.339844 C 1.214844 -2.339844 1.054688 -2.3125 0.898438 -2.257812 C 0.746094 -2.203125 0.613281 -2.125 0.503906 -2.03125 L 0.34375 -2.296875 C 0.476562 -2.410156 0.636719 -2.496094 0.824219 -2.558594 C 1.011719 -2.621094 1.207031 -2.648438 1.414062 -2.648438 M 1.289062 -0.253906 C 1.488281 -0.253906 1.660156 -0.300781 1.804688 -0.390625 C 1.949219 -0.484375 2.054688 -0.617188 2.125 -0.789062 L 2.125 -1.21875 L 1.300781 -1.21875 C 0.851562 -1.21875 0.625 -1.0625 0.625 -0.75 C 0.625 -0.597656 0.683594 -0.476562 0.800781 -0.386719 C 0.917969 -0.300781 1.078125 -0.253906 1.289062 -0.253906 M 1.910156 -3.039062 L 1.425781 -3.335938 L 0.941406 -3.039062 L 0.601562 -3.039062 L 1.25 -3.511719 L 1.601562 -3.511719 L 2.25 -3.039062 L 1.910156 -3.039062 M 1.453125 -4.003906 L 1.890625 -4.003906 L 2.488281 -3.460938 L 2.179688 -3.460938 Z "/>
</g>
<g id="glyph-0-3">
<path d="M 1.835938 -2.648438 C 2.164062 -2.648438 2.425781 -2.554688 2.621094 -2.363281 C 2.816406 -2.171875 2.914062 -1.890625 2.914062 -1.523438 L 2.914062 0 L 2.558594 0 L 2.558594 -1.488281 C 2.558594 -1.761719 2.492188 -1.972656 2.355469 -2.113281 C 2.21875 -2.257812 2.023438 -2.328125 1.769531 -2.328125 C 1.488281 -2.328125 1.261719 -2.246094 1.097656 -2.078125 C 0.933594 -1.910156 0.851562 -1.675781 0.851562 -1.378906 L 0.851562 0 L 0.496094 0 L 0.496094 -2.628906 L 0.835938 -2.628906 L 0.835938 -2.144531 C 0.933594 -2.304688 1.066406 -2.429688 1.238281 -2.515625 C 1.410156 -2.605469 1.609375 -2.648438 1.835938 -2.648438 Z "/>
</g>
<g id="glyph-0-4">
</g>
<g id="glyph-0-5">
<path d="M 2.773438 -1.804688 C 3.003906 -1.753906 3.183594 -1.65625 3.308594 -1.507812 C 3.433594 -1.359375 3.496094 -1.167969 3.496094 -0.933594 C 3.496094 -0.636719 3.382812 -0.402344 3.164062 -0.242188 C 2.941406 -0.0820312 2.613281 0 2.179688 0 L 0.570312 0 L 0.570312 -3.5 L 2.078125 -3.5 C 2.46875 -3.5 2.773438 -3.421875 2.988281 -3.265625 C 3.203125 -3.109375 3.308594 -2.886719 3.308594 -2.601562 C 3.308594 -2.40625 3.261719 -2.242188 3.167969 -2.109375 C 3.074219 -1.972656 2.941406 -1.871094 2.773438 -1.804688 M 0.941406 -3.195312 L 0.941406 -1.925781 L 2.054688 -1.925781 C 2.339844 -1.925781 2.558594 -1.980469 2.710938 -2.085938 C 2.863281 -2.195312 2.941406 -2.351562 2.941406 -2.558594 C 2.941406 -2.765625 2.863281 -2.925781 2.710938 -3.03125 C 2.558594 -3.140625 2.339844 -3.195312 2.054688 -3.195312 L 0.941406 -3.195312 M 2.175781 -0.304688 C 2.488281 -0.304688 2.726562 -0.359375 2.886719 -0.464844 C 3.046875 -0.570312 3.125 -0.738281 3.125 -0.964844 C 3.125 -1.402344 2.808594 -1.621094 2.175781 -1.621094 L 0.941406 -1.621094 L 0.941406 -0.304688 Z "/>
</g>
<g id="glyph-0-6">
<path d="M 0.496094 -2.628906 L 0.851562 -2.628906 L 0.851562 0 L 0.496094 0 L 0.496094 -2.628906 M -0.160156 -3.660156 L 0.316406 -3.660156 L 1 -3.039062 L 0.648438 -3.039062 Z "/>
</g>
<g id="glyph-0-7">
<path d="M 1.835938 -2.648438 C 2.164062 -2.648438 2.425781 -2.554688 2.621094 -2.363281 C 2.816406 -2.171875 2.914062 -1.890625 2.914062 -1.523438 L 2.914062 0 L 2.558594 0 L 2.558594 -1.488281 C 2.558594 -1.761719 2.492188 -1.972656 2.355469 -2.113281 C 2.21875 -2.257812 2.023438 -2.328125 1.769531 -2.328125 C 1.488281 -2.328125 1.261719 -2.246094 1.097656 -2.078125 C 0.933594 -1.910156 0.851562 -1.675781 0.851562 -1.378906 L 0.851562 0 L 0.496094 0 L 0.496094 -3.710938 L 0.851562 -3.710938 L 0.851562 -2.171875 C 0.945312 -2.324219 1.078125 -2.441406 1.25 -2.523438 C 1.421875 -2.609375 1.613281 -2.648438 1.835938 -2.648438 Z "/>
</g>
</g>
</defs>
<g fill="rgb(89.803922%, 90.588235%, 92.156863%)" fill-opacity="1">
<use xlink:href="#glyph-0-0" x="30" y="24.839844"/>
<use xlink:href="#glyph-0-1" x="33" y="24.839844"/>
<use xlink:href="#glyph-0-2" x="35" y="24.839844"/>
<use xlink:href="#glyph-0-3" x="38" y="24.839844"/>
<use xlink:href="#glyph-0-4" x="41" y="24.839844"/>
<use xlink:href="#glyph-0-5" x="42" y="24.839844"/>
<use xlink:href="#glyph-0-6" x="46" y="24.839844"/>
<use xlink:href="#glyph-0-3" x="47" y="24.839844"/>
<use xlink:href="#glyph-0-7" x="50" y="24.839844"/>
</g>
</svg>
