<?xml version="1.0" encoding="UTF-8"?>
<svg xmlns="http://www.w3.org/2000/svg" xmlns:xlink="http://www.w3.org/1999/xlink" width="854" height="480" viewBox="0 0 854 480">
<defs>
<g>
<g id="glyph-0-0">
<path d="M 5.066406 -3.636719 L 4.144531 0 L 3.144531 0 L 2.5625 -2.25 L 1.996094 0 L 0.992188 0 L 0.0742188 -3.636719 L 1.019531 -3.636719 L 1.519531 -1.195312 L 2.132812 -3.636719 L 3.039062 -3.636719 L 3.617188 -1.195312 L 4.144531 -3.636719 Z "/>
</g>
<g id="glyph-0-1">
<path d="M 2.1875 0 L 0.230469 0 L 0.230469 -0.632812 L 0.75 -0.632812 L 0.75 -3 L 0.230469 -3 L 0.230469 -3.636719 L 2.1875 -3.636719 L 2.1875 -3 L 1.664062 -3 L 1.664062 -0.632812 L 2.1875 -0.632812 Z "/>
</g>
<g id="glyph-0-2">
<path d="M 3.492188 0 L 2.613281 0 L 1.210938 -2.535156 L 1.210938 0 L 0.375 0 L 0.375 -3.636719 L 1.496094 -3.636719 L 2.65625 -1.554688 L 2.65625 -3.636719 L 3.492188 -3.636719 Z "/>
</g>
<g id="glyph-0-3">
<path d="M 0.375 0 L 0.375 -3.636719 L 2.835938 -3.636719 L 2.835938 -2.941406 L 1.285156 -2.941406 L 1.285156 -2.304688 L 2.710938 -2.304688 L 2.710938 -1.609375 L 1.285156 -1.609375 L 1.285156 -0.695312 L 2.835938 -0.695312 L 2.835938 0 Z "/>
</g>
<g id="glyph-0-4">
<path d="M 3.738281 0 L 2.625 0 L 1.609375 -1.332031 L 1.285156 -1.332031 L 1.285156 0 L 0.375 0 L 0.375 -3.636719 L 1.839844 -3.636719 C 2.039062 -3.636719 2.214844 -3.621094 2.367188 -3.597656 C 2.515625 -3.570312 2.652344 -3.519531 2.78125 -3.441406 C 2.910156 -3.355469 3.015625 -3.25 3.089844 -3.125 C 3.167969 -2.996094 3.207031 -2.832031 3.207031 -2.636719 C 3.207031 -2.359375 3.144531 -2.132812 3.015625 -1.960938 C 2.890625 -1.785156 2.726562 -1.648438 2.515625 -1.546875 L 3.738281 0 M 2.269531 -2.523438 C 2.269531 -2.613281 2.25 -2.691406 2.214844 -2.757812 C 2.179688 -2.824219 2.121094 -2.875 2.039062 -2.910156 C 1.984375 -2.933594 1.921875 -2.949219 1.851562 -2.957031 C 1.78125 -2.964844 1.695312 -2.964844 1.589844 -2.964844 L 1.285156 -2.964844 L 1.285156 -1.988281 L 1.546875 -1.988281 C 1.671875 -1.988281 1.78125 -1.996094 1.867188 -2.011719 C 1.957031 -2.027344 2.03125 -2.058594 2.09375 -2.109375 C 2.152344 -2.15625 2.195312 -2.210938 2.226562 -2.273438 C 2.253906 -2.335938 2.269531 -2.417969 2.269531 -2.523438 Z "/>
</g>
</g>
</defs>
<g fill="rgb(98.431373%, 74.901961%, 14.117647%)" fill-opacity="1">
<use xlink:href="#glyph-0-0" x="30" y="25.00293"/>
<use xlink:href="#glyph-0-1" x="35" y="25.00293"/>
<use xlink:href="#glyph-0-2" x="37" y="25.00293"/>
<use xlink:href="#glyph-0-2" x="41" y="25.00293"/>
<use xlink:href="#glyph-0-3" x="45" y="25.00293"/>
<use xlink:href="#glyph-0-4" x="48" y="25.00293"/>
</g>
</svg>
