<?xml version="1.0" encoding="UTF-8"?>
<svg xmlns="http://www.w3.org/2000/svg" xmlns:xlink="http://www.w3.org/1999/xlink" width="854" height="480" viewBox="0 0 854 480">
<defs>
<g>
<g id="glyph-0-0">
<path d="M 3.28125 0 L 0.179688 0 L 0.367188 -0.550781 L 3.886719 -3.917969 L 1.617188 -3.917969 L 1.796875 -4.441406 L 4.730469 -4.441406 L 4.550781 -3.910156 L 0.996094 -0.523438 L 3.460938 -0.523438 Z "/>
</g>
<g id="glyph-0-1">
<path d="M 3.714844 -1.664062 C 3.523438 -1.105469 3.242188 -0.671875 2.867188 -0.367188 C 2.492188 -0.0585938 2.078125 0.09375 1.628906 0.09375 C 1.167969 0.09375 0.855469 -0.0664062 0.699219 -0.378906 C 0.539062 -0.695312 0.550781 -1.125 0.734375 -1.664062 C 0.925781 -2.222656 1.207031 -2.65625 1.585938 -2.960938 C 1.964844 -3.269531 2.378906 -3.425781 2.824219 -3.425781 C 3.277344 -3.425781 3.582031 -3.273438 3.75 -2.964844 C 3.914062 -2.65625 3.902344 -2.222656 3.714844 -1.664062 M 3.136719 -1.664062 C 3.28125 -2.097656 3.3125 -2.417969 3.226562 -2.628906 C 3.140625 -2.835938 2.953125 -2.941406 2.660156 -2.941406 C 2.371094 -2.941406 2.109375 -2.835938 1.878906 -2.628906 C 1.648438 -2.417969 1.460938 -2.097656 1.316406 -1.664062 C 1.171875 -1.246094 1.144531 -0.929688 1.230469 -0.714844 C 1.3125 -0.5 1.503906 -0.390625 1.792969 -0.390625 C 2.082031 -0.390625 2.34375 -0.496094 2.574219 -0.707031 C 2.804688 -0.921875 2.988281 -1.238281 3.136719 -1.664062 Z "/>
</g>
<g id="glyph-0-2">
<path d="M 4.1875 0 L 4.84375 -1.925781 C 4.894531 -2.082031 4.9375 -2.222656 4.972656 -2.351562 C 5.003906 -2.484375 5.011719 -2.585938 5 -2.660156 C 4.988281 -2.738281 4.949219 -2.796875 4.890625 -2.835938 C 4.828125 -2.871094 4.734375 -2.890625 4.609375 -2.890625 C 4.496094 -2.890625 4.359375 -2.855469 4.203125 -2.785156 C 4.046875 -2.714844 3.875 -2.613281 3.6875 -2.480469 C 3.679688 -2.445312 3.667969 -2.40625 3.65625 -2.359375 C 3.644531 -2.3125 3.625 -2.257812 3.605469 -2.191406 L 2.859375 0 L 2.296875 0 L 2.953125 -1.925781 C 3.003906 -2.082031 3.046875 -2.222656 3.078125 -2.351562 C 3.113281 -2.484375 3.121094 -2.585938 3.109375 -2.660156 C 3.09375 -2.738281 3.058594 -2.796875 3 -2.835938 C 2.9375 -2.871094 2.84375 -2.890625 2.71875 -2.890625 C 2.597656 -2.890625 2.457031 -2.851562 2.296875 -2.777344 C 2.140625 -2.703125 1.976562 -2.605469 1.8125 -2.488281 L 0.964844 0 L 0.40625 0 L 1.539062 -3.332031 L 2.097656 -3.332031 L 1.972656 -2.960938 C 2.171875 -3.109375 2.355469 -3.222656 2.527344 -3.304688 C 2.699219 -3.386719 2.871094 -3.425781 3.042969 -3.425781 C 3.242188 -3.425781 3.398438 -3.378906 3.523438 -3.292969 C 3.644531 -3.203125 3.710938 -3.054688 3.71875 -2.847656 C 3.953125 -3.039062 4.167969 -3.183594 4.359375 -3.277344 C 4.554688 -3.375 4.746094 -3.425781 4.933594 -3.425781 C 5.078125 -3.425781 5.203125 -3.402344 5.304688 -3.359375 C 5.40625 -3.3125 5.484375 -3.242188 5.539062 -3.140625 C 5.59375 -3.039062 5.617188 -2.914062 5.617188 -2.761719 C 5.613281 -2.613281 5.574219 -2.421875 5.496094 -2.191406 L 4.75 0 Z "/>
</g>
<g id="glyph-0-3">
<path d="M 2.28125 -2.484375 L 1.570312 -2.484375 L 1.859375 -3.332031 L 2.570312 -3.332031 L 2.28125 -2.484375 M 1.4375 0 L 0.726562 0 L 1.015625 -0.851562 L 1.726562 -0.851562 Z "/>
</g>
<g id="glyph-0-4">
</g>
<g id="glyph-0-5">
<path d="M 2.597656 0 L 0.144531 0 L 0.289062 -0.414062 L 2.863281 -2.871094 L 1.191406 -2.871094 L 1.351562 -3.332031 L 3.695312 -3.332031 L 3.558594 -2.933594 L 0.972656 -0.46875 L 2.753906 -0.46875 Z "/>
</g>
<g id="glyph-0-6">
<path d="M 1.828125 0.078125 C 1.296875 0.078125 0.933594 -0.0703125 0.742188 -0.371094 C 0.550781 -0.671875 0.546875 -1.097656 0.734375 -1.648438 C 0.921875 -2.191406 1.210938 -2.621094 1.601562 -2.945312 C 1.996094 -3.265625 2.421875 -3.425781 2.882812 -3.425781 C 3.089844 -3.425781 3.261719 -3.394531 3.402344 -3.335938 C 3.539062 -3.277344 3.648438 -3.183594 3.722656 -3.054688 C 3.800781 -2.929688 3.839844 -2.773438 3.839844 -2.589844 C 3.839844 -2.40625 3.796875 -2.179688 3.707031 -1.914062 L 3.601562 -1.609375 L 1.292969 -1.609375 C 1.160156 -1.21875 1.15625 -0.925781 1.28125 -0.71875 C 1.40625 -0.515625 1.644531 -0.410156 1.988281 -0.410156 C 2.109375 -0.410156 2.234375 -0.425781 2.363281 -0.453125 C 2.492188 -0.480469 2.609375 -0.515625 2.722656 -0.5625 C 2.835938 -0.605469 2.9375 -0.652344 3.023438 -0.695312 C 3.105469 -0.738281 3.179688 -0.777344 3.238281 -0.816406 L 3.269531 -0.816406 L 3.0625 -0.203125 C 2.988281 -0.175781 2.894531 -0.144531 2.785156 -0.105469 C 2.671875 -0.0664062 2.574219 -0.0351562 2.492188 -0.015625 C 2.371094 0.015625 2.265625 0.0390625 2.171875 0.0546875 C 2.078125 0.0703125 1.960938 0.078125 1.828125 0.078125 M 3.203125 -2.039062 C 3.25 -2.1875 3.277344 -2.320312 3.28125 -2.429688 C 3.285156 -2.539062 3.273438 -2.628906 3.238281 -2.707031 C 3.199219 -2.789062 3.136719 -2.851562 3.050781 -2.898438 C 2.964844 -2.941406 2.84375 -2.960938 2.691406 -2.960938 C 2.542969 -2.960938 2.410156 -2.941406 2.289062 -2.894531 C 2.167969 -2.851562 2.050781 -2.785156 1.9375 -2.699219 C 1.824219 -2.613281 1.726562 -2.515625 1.648438 -2.410156 C 1.570312 -2.304688 1.5 -2.179688 1.4375 -2.039062 Z "/>
</g>
<g id="glyph-0-7">
<path d="M 3.191406 -1.675781 C 3.328125 -2.074219 3.371094 -2.375 3.316406 -2.582031 C 3.265625 -2.789062 3.105469 -2.890625 2.839844 -2.890625 C 2.683594 -2.890625 2.519531 -2.855469 2.339844 -2.785156 C 2.15625 -2.710938 1.984375 -2.621094 1.820312 -2.511719 L 1.171875 -0.601562 C 1.289062 -0.53125 1.398438 -0.484375 1.496094 -0.453125 C 1.597656 -0.425781 1.710938 -0.410156 1.84375 -0.410156 C 2.128906 -0.410156 2.390625 -0.511719 2.621094 -0.714844 C 2.851562 -0.917969 3.042969 -1.238281 3.191406 -1.675781 M 3.785156 -1.722656 C 3.601562 -1.175781 3.320312 -0.738281 2.941406 -0.40625 C 2.566406 -0.0742188 2.175781 0.09375 1.78125 0.09375 C 1.597656 0.09375 1.453125 0.0703125 1.339844 0.0234375 C 1.226562 -0.0195312 1.117188 -0.078125 1.019531 -0.15625 L 0.929688 0 L 0.40625 0 L 1.984375 -4.644531 L 2.542969 -4.644531 L 1.980469 -2.984375 C 2.164062 -3.109375 2.355469 -3.214844 2.546875 -3.300781 C 2.742188 -3.382812 2.941406 -3.425781 3.152344 -3.425781 C 3.527344 -3.425781 3.773438 -3.273438 3.886719 -2.972656 C 4 -2.671875 3.96875 -2.253906 3.785156 -1.722656 Z "/>
</g>
<g id="glyph-0-8">
<path d="M 3.101562 -2.730469 L 3.070312 -2.730469 C 3.03125 -2.742188 2.992188 -2.75 2.945312 -2.753906 C 2.898438 -2.753906 2.84375 -2.757812 2.777344 -2.757812 C 2.625 -2.757812 2.464844 -2.722656 2.292969 -2.660156 C 2.121094 -2.59375 1.949219 -2.496094 1.769531 -2.367188 L 0.964844 0 L 0.40625 0 L 1.539062 -3.332031 L 2.097656 -3.332031 L 1.929688 -2.835938 C 2.199219 -3.019531 2.417969 -3.144531 2.597656 -3.222656 C 2.773438 -3.296875 2.933594 -3.332031 3.078125 -3.332031 C 3.136719 -3.332031 3.179688 -3.332031 3.207031 -3.328125 C 3.234375 -3.324219 3.265625 -3.320312 3.296875 -3.316406 Z "/>
</g>
<g id="glyph-0-9">
<path d="M 2.546875 -0.820312 L 2.859375 -1.746094 C 2.722656 -1.734375 2.550781 -1.71875 2.339844 -1.695312 C 2.128906 -1.675781 1.953125 -1.644531 1.816406 -1.609375 C 1.648438 -1.5625 1.503906 -1.492188 1.375 -1.398438 C 1.242188 -1.304688 1.148438 -1.171875 1.09375 -1.003906 C 1.027344 -0.8125 1.03125 -0.667969 1.105469 -0.570312 C 1.179688 -0.472656 1.320312 -0.421875 1.527344 -0.421875 C 1.707031 -0.421875 1.878906 -0.460938 2.046875 -0.539062 C 2.21875 -0.613281 2.382812 -0.710938 2.546875 -0.820312 M 2.386719 -0.355469 C 2.332031 -0.320312 2.253906 -0.273438 2.15625 -0.214844 C 2.058594 -0.152344 1.96875 -0.105469 1.886719 -0.0703125 C 1.769531 -0.015625 1.660156 0.0234375 1.558594 0.0507812 C 1.453125 0.078125 1.320312 0.09375 1.152344 0.09375 C 1.015625 0.09375 0.894531 0.0664062 0.789062 0.015625 C 0.683594 -0.0351562 0.597656 -0.109375 0.539062 -0.203125 C 0.480469 -0.292969 0.445312 -0.40625 0.4375 -0.542969 C 0.429688 -0.675781 0.449219 -0.816406 0.5 -0.964844 C 0.578125 -1.199219 0.695312 -1.394531 0.847656 -1.554688 C 1 -1.71875 1.199219 -1.847656 1.441406 -1.941406 C 1.65625 -2.027344 1.898438 -2.085938 2.164062 -2.121094 C 2.429688 -2.152344 2.714844 -2.175781 3.011719 -2.191406 L 3.050781 -2.300781 C 3.09375 -2.433594 3.109375 -2.539062 3.097656 -2.617188 C 3.085938 -2.699219 3.050781 -2.761719 2.992188 -2.804688 C 2.9375 -2.851562 2.859375 -2.878906 2.761719 -2.894531 C 2.664062 -2.910156 2.558594 -2.917969 2.449219 -2.917969 C 2.320312 -2.917969 2.164062 -2.898438 1.972656 -2.859375 C 1.785156 -2.820312 1.59375 -2.765625 1.390625 -2.691406 L 1.359375 -2.691406 L 1.554688 -3.261719 C 1.667969 -3.292969 1.824219 -3.324219 2.03125 -3.359375 C 2.234375 -3.394531 2.433594 -3.414062 2.621094 -3.414062 C 2.851562 -3.414062 3.039062 -3.394531 3.183594 -3.359375 C 3.328125 -3.324219 3.445312 -3.257812 3.539062 -3.164062 C 3.628906 -3.074219 3.679688 -2.957031 3.691406 -2.8125 C 3.703125 -2.664062 3.671875 -2.488281 3.601562 -2.28125 L 2.824219 0 L 2.269531 0 Z "/>
</g>
<g id="glyph-0-10">
<path d="M 1.28125 0.0820312 C 1.058594 0.0820312 0.859375 0.0507812 0.683594 -0.0078125 C 0.511719 -0.0703125 0.371094 -0.132812 0.269531 -0.199219 L 0.480469 -0.828125 L 0.511719 -0.828125 C 0.546875 -0.792969 0.589844 -0.75 0.636719 -0.703125 C 0.6875 -0.660156 0.757812 -0.609375 0.847656 -0.5625 C 0.925781 -0.515625 1.019531 -0.476562 1.121094 -0.445312 C 1.226562 -0.410156 1.339844 -0.394531 1.460938 -0.394531 C 1.550781 -0.394531 1.648438 -0.402344 1.757812 -0.425781 C 1.867188 -0.445312 1.953125 -0.472656 2.011719 -0.503906 C 2.097656 -0.550781 2.164062 -0.597656 2.210938 -0.652344 C 2.261719 -0.703125 2.304688 -0.78125 2.339844 -0.882812 C 2.382812 -1.015625 2.382812 -1.117188 2.332031 -1.183594 C 2.28125 -1.253906 2.171875 -1.308594 2.003906 -1.355469 C 1.9375 -1.371094 1.851562 -1.394531 1.742188 -1.417969 C 1.636719 -1.441406 1.539062 -1.46875 1.449219 -1.496094 C 1.222656 -1.570312 1.074219 -1.683594 1.011719 -1.835938 C 0.949219 -1.992188 0.953125 -2.175781 1.027344 -2.394531 C 1.132812 -2.695312 1.328125 -2.941406 1.617188 -3.128906 C 1.910156 -3.320312 2.242188 -3.414062 2.617188 -3.414062 C 2.804688 -3.414062 2.980469 -3.390625 3.152344 -3.34375 C 3.324219 -3.300781 3.460938 -3.242188 3.566406 -3.171875 L 3.363281 -2.570312 L 3.332031 -2.570312 C 3.226562 -2.683594 3.097656 -2.773438 2.945312 -2.839844 C 2.792969 -2.90625 2.625 -2.9375 2.445312 -2.9375 C 2.261719 -2.9375 2.089844 -2.898438 1.9375 -2.824219 C 1.785156 -2.746094 1.679688 -2.628906 1.628906 -2.46875 C 1.578125 -2.332031 1.582031 -2.226562 1.632812 -2.160156 C 1.6875 -2.089844 1.789062 -2.035156 1.941406 -1.988281 C 2.015625 -1.96875 2.101562 -1.945312 2.199219 -1.925781 C 2.292969 -1.90625 2.394531 -1.878906 2.496094 -1.851562 C 2.722656 -1.792969 2.875 -1.6875 2.949219 -1.546875 C 3.023438 -1.402344 3.019531 -1.207031 2.9375 -0.960938 C 2.886719 -0.816406 2.8125 -0.683594 2.714844 -0.554688 C 2.613281 -0.425781 2.492188 -0.316406 2.351562 -0.222656 C 2.199219 -0.125 2.039062 -0.046875 1.871094 0.00390625 C 1.703125 0.0546875 1.507812 0.0820312 1.28125 0.0820312 Z "/>
</g>
<g id="glyph-0-11">
<path d="M 3.167969 0 L 2.433594 0 L 1.734375 -1.609375 L 1.441406 -1.394531 L 0.964844 0 L 0.40625 0 L 1.984375 -4.644531 L 2.542969 -4.644531 L 1.621094 -1.925781 L 3.417969 -3.332031 L 4.117188 -3.332031 L 2.273438 -1.9375 Z "/>
</g>
<g id="glyph-0-12">
<path d="M 0.980469 0 L 0.417969 0 L 1.550781 -3.332031 L 2.109375 -3.332031 L 0.980469 0 M 2.339844 -3.890625 L 1.703125 -3.890625 L 1.898438 -4.472656 L 2.539062 -4.472656 Z "/>
</g>
<g id="glyph-0-13">
<path d="M 3.027344 0 L 2.464844 0 L 3.109375 -1.898438 C 3.160156 -2.050781 3.203125 -2.195312 3.234375 -2.324219 C 3.261719 -2.457031 3.269531 -2.5625 3.253906 -2.644531 C 3.238281 -2.726562 3.195312 -2.789062 3.128906 -2.828125 C 3.058594 -2.871094 2.957031 -2.890625 2.816406 -2.890625 C 2.675781 -2.890625 2.519531 -2.855469 2.34375 -2.78125 C 2.171875 -2.703125 1.996094 -2.609375 1.8125 -2.488281 L 0.964844 0 L 0.40625 0 L 1.539062 -3.332031 L 2.097656 -3.332031 L 1.972656 -2.960938 C 2.191406 -3.113281 2.394531 -3.226562 2.585938 -3.304688 C 2.777344 -3.386719 2.960938 -3.425781 3.140625 -3.425781 C 3.46875 -3.425781 3.691406 -3.316406 3.800781 -3.101562 C 3.914062 -2.886719 3.898438 -2.574219 3.761719 -2.164062 Z "/>
</g>
</g>
</defs>
<g fill="rgb(98.431373%, 74.901961%, 14.117647%)" fill-opacity="1">
<use xlink:href="#glyph-0-0" x="30" y="26.113281"/>
<use xlink:href="#glyph-0-1" x="32.917969" y="26.113281"/>
<use xlink:href="#glyph-0-1" x="36" y="26.113281"/>
<use xlink:href="#glyph-0-2" x="39" y="26.113281"/>
<use xlink:href="#glyph-0-3" x="44" y="26.113281"/>
<use xlink:href="#glyph-0-4" x="46" y="26.113281"/>
<use xlink:href="#glyph-0-5" x="48" y="26.113281"/>
<use xlink:href="#glyph-0-6" x="50.985352" y="26.113281"/>
<use xlink:href="#glyph-0-7" x="54" y="26.113281"/>
<use xlink:href="#glyph-0-8" x="57" y="26.113281"/>
<use xlink:href="#glyph-0-9" x="58.948242" y="26.113281"/>
<use xlink:href="#glyph-0-4" x="62" y="26.113281"/>
<use xlink:href="#glyph-0-10" x="64" y="26.113281"/>
<use xlink:href="#glyph-0-11" x="67" y="26.113281"/>
<use xlink:href="#glyph-0-12" x="70" y="26.113281"/>
<use xlink:href="#glyph-0-13" x="71" y="26.113281"/>
</g>
</svg>
